<svg xmlns="http://www.w3.org/2000/svg" viewBox="0 0 200 200" width="200" height="200">
  <!-- Background Circle -->
  <circle cx="100" cy="100" r="95" fill="#FF6B35" stroke="#1e3a8a" stroke-width="3"/>
  
  <!-- Inner Circle -->
  <circle cx="100" cy="100" r="80" fill="#FFF" opacity="0.95"/>
  
  <!-- Ashoka Chakra inspired design -->
  <circle cx="100" cy="100" r="60" fill="none" stroke="#1e3a8a" stroke-width="4"/>
  <circle cx="100" cy="100" r="50" fill="none" stroke="#FF6B35" stroke-width="2"/>
  
  <!-- 8 spokes radiating from center -->
  <g stroke="#1e3a8a" stroke-width="3" stroke-linecap="round">
    <line x1="100" y1="45" x2="100" y2="155" />
    <line x1="145" y1="55" x2="55" y2="145" />
    <line x1="155" y1="100" x2="45" y2="100" />
    <line x1="145" y1="145" x2="55" y2="55" />
  </g>
  
  <!-- Center emblem -->
  <circle cx="100" cy="100" r="15" fill="#FF6B35"/>
  <circle cx="100" cy="100" r="10" fill="#1e3a8a"/>
  
  <!-- Decorative elements -->
  <g fill="#FF6B35">
    <circle cx="100" cy="40" r="5"/>
    <circle cx="130" cy="50" r="5"/>
    <circle cx="150" cy="70" r="5"/>
    <circle cx="160" cy="100" r="5"/>
    <circle cx="150" cy="130" r="5"/>
    <circle cx="130" cy="150" r="5"/>
    <circle cx="100" cy="160" r="5"/>
    <circle cx="70" cy="150" r="5"/>
    <circle cx="50" cy="130" r="5"/>
    <circle cx="40" cy="100" r="5"/>
    <circle cx="50" cy="70" r="5"/>
    <circle cx="70" cy="50" r="5"/>
  </g>
  
  <!-- AI/Tech inspired lines -->
  <g stroke="#1e3a8a" stroke-width="1.5" opacity="0.4" fill="none">
    <path d="M 100 100 L 120 85 L 140 95"/>
    <path d="M 100 100 L 120 115 L 140 105"/>
    <path d="M 100 100 L 80 85 L 60 95"/>
    <path d="M 100 100 L 80 115 L 60 105"/>
  </g>
</svg>
